<?xml version="1.0" encoding="utf-8"?>
<!-- Generator: Adobe Illustrator 16.0.0, SVG Export Plug-In . SVG Version: 6.00 Build 0)  -->
<!DOCTYPE svg PUBLIC "-//W3C//DTD SVG 1.1//EN" "http://www.w3.org/Graphics/SVG/1.1/DTD/svg11.dtd">
<svg version="1.1" id="Capa_1" xmlns="http://www.w3.org/2000/svg" xmlns:xlink="http://www.w3.org/1999/xlink" x="0px" y="0px"
	 width="28.437px" height="24.326px" viewBox="0 0 28.437 24.326" enable-background="new 0 0 28.437 24.326" xml:space="preserve">
<g>
	
		<linearGradient id="SVGID_1_" gradientUnits="userSpaceOnUse" x1="68.501" y1="12.2217" x2="92.501" y2="12.2217" gradientTransform="matrix(1 0 0 1 -66.001 9.765625e-004)">
		<stop  offset="0.457" style="stop-color:#02A556;stop-opacity:0.9"/>
		<stop  offset="1" style="stop-color:#00AFA3"/>
	</linearGradient>
	<path fill="url(#SVGID_1_)" d="M26.5,12.445c0,0.43-0.348,0.778-0.778,0.778H3.278c-0.43,0-0.778-0.348-0.778-0.778V12
		c0-0.43,0.348-0.778,0.778-0.778h22.444c0.43,0,0.778,0.348,0.778,0.778V12.445z"/>
	
		<linearGradient id="SVGID_2_" gradientUnits="userSpaceOnUse" x1="68.501" y1="9.2217" x2="92.501" y2="9.2217" gradientTransform="matrix(1 0 0 1 -66.001 9.765625e-004)">
		<stop  offset="0.457" style="stop-color:#02A556;stop-opacity:0.9"/>
		<stop  offset="1" style="stop-color:#00AFA3"/>
	</linearGradient>
	<path fill="url(#SVGID_2_)" d="M26.5,9.445c0,0.43-0.348,0.778-0.778,0.778H3.278c-0.43,0-0.778-0.348-0.778-0.778V9
		c0-0.43,0.348-0.778,0.778-0.778h22.444c0.43,0,0.778,0.348,0.778,0.778V9.445z"/>
	
		<linearGradient id="SVGID_3_" gradientUnits="userSpaceOnUse" x1="68.501" y1="15.2217" x2="92.501" y2="15.2217" gradientTransform="matrix(1 0 0 1 -66.001 9.765625e-004)">
		<stop  offset="0.457" style="stop-color:#02A556;stop-opacity:0.9"/>
		<stop  offset="1" style="stop-color:#00AFA3"/>
	</linearGradient>
	<path fill="url(#SVGID_3_)" d="M26.5,15.445c0,0.43-0.348,0.778-0.778,0.778H3.278c-0.43,0-0.778-0.348-0.778-0.778V15
		c0-0.43,0.348-0.778,0.778-0.778h22.444c0.43,0,0.778,0.348,0.778,0.778V15.445z"/>
	
		<linearGradient id="SVGID_4_" gradientUnits="userSpaceOnUse" x1="74.501" y1="3.2217" x2="86.501" y2="3.2217" gradientTransform="matrix(1 0 0 1 -66.001 9.765625e-004)">
		<stop  offset="0.457" style="stop-color:#02A556;stop-opacity:0.9"/>
		<stop  offset="1" style="stop-color:#00AFA3"/>
	</linearGradient>
	<path fill="url(#SVGID_4_)" d="M20.5,3.445c0,0.43-0.348,0.778-0.778,0.778H9.278c-0.43,0-0.778-0.348-0.778-0.778V3
		c0-0.43,0.348-0.778,0.778-0.778h10.444c0.43,0,0.778,0.348,0.778,0.778V3.445z"/>
	
		<linearGradient id="SVGID_5_" gradientUnits="userSpaceOnUse" x1="74.501" y1="18.2217" x2="86.501" y2="18.2217" gradientTransform="matrix(1 0 0 1 -66.001 9.765625e-004)">
		<stop  offset="0.457" style="stop-color:#02A556;stop-opacity:0.9"/>
		<stop  offset="1" style="stop-color:#00AFA3"/>
	</linearGradient>
	<path fill="url(#SVGID_5_)" d="M20.5,18.445c0,0.43-0.348,0.778-0.778,0.778H9.278c-0.43,0-0.778-0.348-0.778-0.778V18
		c0-0.43,0.348-0.778,0.778-0.778h10.444c0.43,0,0.778,0.348,0.778,0.778V18.445z"/>
	
		<linearGradient id="SVGID_6_" gradientUnits="userSpaceOnUse" x1="74.501" y1="21.2217" x2="86.501" y2="21.2217" gradientTransform="matrix(1 0 0 1 -66.001 9.765625e-004)">
		<stop  offset="0.457" style="stop-color:#02A556;stop-opacity:0.9"/>
		<stop  offset="1" style="stop-color:#00AFA3"/>
	</linearGradient>
	<path fill="url(#SVGID_6_)" d="M20.5,21.445c0,0.43-0.348,0.778-0.778,0.778H9.278c-0.43,0-0.778-0.348-0.778-0.778V21
		c0-0.43,0.348-0.778,0.778-0.778h10.444c0.43,0,0.778,0.348,0.778,0.778V21.445z"/>
	
		<linearGradient id="SVGID_7_" gradientUnits="userSpaceOnUse" x1="74.501" y1="6.2217" x2="86.501" y2="6.2217" gradientTransform="matrix(1 0 0 1 -66.001 9.765625e-004)">
		<stop  offset="0.457" style="stop-color:#02A556;stop-opacity:0.9"/>
		<stop  offset="1" style="stop-color:#00AFA3"/>
	</linearGradient>
	<path fill="url(#SVGID_7_)" d="M20.5,6.445c0,0.43-0.348,0.778-0.778,0.778H9.278c-0.43,0-0.778-0.348-0.778-0.778V6
		c0-0.43,0.348-0.778,0.778-0.778h10.444c0.43,0,0.778,0.348,0.778,0.778V6.445z"/>
</g>
</svg>
